<svg width="512" height="512" viewBox="0 0 512 512" fill="none" xmlns="http://www.w3.org/2000/svg">
  <!-- 主体圆形背景 -->
  <circle cx="256" cy="256" r="240" fill="#2B3A67"/>
  
  <!-- 蜘蛛身体 -->
  <ellipse cx="256" cy="256" rx="100" ry="120" fill="#E84855"/>
  
  <!-- 蜘蛛头部 -->
  <circle cx="256" cy="186" r="60" fill="#403F4C"/>
  
  <!-- 蜘蛛眼睛 -->
  <circle cx="236" cy="176" r="12" fill="white"/>
  <circle cx="276" cy="176" r="12" fill="white"/>
  <circle cx="236" cy="176" r="6" fill="black"/>
  <circle cx="276" cy="176" r="6" fill="black"/>
  
  <!-- 蜘蛛腿 -->
  <!-- 左侧腿 -->
  <path d="M156 196 Q 126 146 86 126" stroke="#403F4C" stroke-width="12" stroke-linecap="round"/>
  <path d="M156 236 Q 106 236 56 216" stroke="#403F4C" stroke-width="12" stroke-linecap="round"/>
  <path d="M156 276 Q 106 306 66 336" stroke="#403F4C" stroke-width="12" stroke-linecap="round"/>
  <path d="M176 316 Q 146 356 136 396" stroke="#403F4C" stroke-width="12" stroke-linecap="round"/>
  
  <!-- 右侧腿 -->
  <path d="M356 196 Q 386 146 426 126" stroke="#403F4C" stroke-width="12" stroke-linecap="round"/>
  <path d="M356 236 Q 406 236 456 216" stroke="#403F4C" stroke-width="12" stroke-linecap="round"/>
  <path d="M356 276 Q 406 306 446 336" stroke="#403F4C" stroke-width="12" stroke-linecap="round"/>
  <path d="M336 316 Q 366 356 376 396" stroke="#403F4C" stroke-width="12" stroke-linecap="round"/>
  
  <!-- 蜘蛛网元素 -->
  <path d="M256 116 Q 256 76 256 36" stroke="white" stroke-width="4" stroke-linecap="round"/>
  <path d="M256 396 Q 256 436 256 476" stroke="white" stroke-width="4" stroke-linecap="round"/>
  
  <!-- 网状装饰 -->
  <circle cx="256" cy="256" r="180" stroke="white" stroke-width="2" stroke-dasharray="5 10" fill="none"/>
  <circle cx="256" cy="256" r="210" stroke="white" stroke-width="1" stroke-dasharray="3 8" fill="none"/>
</svg>